<svg width="1198" height="1198" viewBox="0 0 1198 1198" fill="none" xmlns="http://www.w3.org/2000/svg">
<path d="M1141.84 316.347C1145.02 316.383 1148.13 317.206 1150.91 318.741C1153.68 320.277 1156.04 322.477 1157.76 325.144C1159.42 327.816 1160.38 330.866 1160.54 334.009C1160.7 337.151 1160.07 340.284 1158.69 343.114L1030.09 610.98H1055.93C1066.82 610.98 1077.6 613.125 1087.66 617.292C1097.72 621.459 1106.86 627.567 1114.56 635.268C1122.26 642.968 1128.37 652.11 1132.54 662.171C1136.7 672.232 1138.85 683.015 1138.85 693.904C1138.85 704.794 1136.7 715.577 1132.54 725.638C1128.37 735.698 1122.26 744.84 1114.56 752.54C1106.86 760.24 1097.72 766.348 1087.66 770.516C1077.6 774.683 1066.82 776.828 1055.93 776.828H950.539L870.423 943.8V943.986L836.729 1014.18C830.747 1026.48 821.438 1036.86 809.858 1044.14C798.278 1051.42 784.89 1055.31 771.213 1055.36H56.1572C51.1928 1055.36 46.4313 1053.39 42.9209 1049.88C39.4105 1046.37 37.4385 1041.61 37.4385 1036.64V685.294C37.4227 682.741 37.9289 680.211 38.9268 677.861C39.9247 675.511 41.3932 673.39 43.2412 671.629C45.0634 669.858 47.2397 668.492 49.627 667.621C52.0141 666.75 54.5582 666.394 57.0928 666.575L578.784 694.466L849.458 324.021C851.201 321.637 853.482 319.698 856.117 318.364C858.752 317.03 861.667 316.339 864.62 316.347H1141.84ZM204.034 740.888C196.118 740.883 188.278 742.439 180.963 745.466C173.648 748.493 167.001 752.933 161.403 758.531C155.805 764.129 151.365 770.776 148.338 778.091C145.311 785.406 143.755 793.246 143.76 801.162V833.733C143.76 849.744 150.12 865.099 161.441 876.42C172.763 887.741 188.117 894.101 204.128 894.102C220.138 894.102 235.493 887.741 246.814 876.42C258.136 865.099 264.496 849.744 264.496 833.733V801.162C264.466 785.153 258.081 769.811 246.743 758.509C235.405 747.206 220.043 740.868 204.034 740.888ZM370.444 740.888C354.435 740.868 339.073 747.206 327.735 758.509C316.398 769.811 310.012 785.153 309.982 801.162V833.733C309.982 849.744 316.343 865.099 327.664 876.42C338.985 887.741 354.34 894.101 370.351 894.102C386.361 894.102 401.716 887.741 413.037 876.42C424.358 865.099 430.719 849.744 430.719 833.733V801.162C430.699 785.183 424.342 769.863 413.043 758.563C401.744 747.264 386.424 740.907 370.444 740.888ZM826.06 648.418C813.996 648.418 802.426 653.21 793.896 661.74C785.365 670.271 780.572 681.84 780.572 693.904C780.572 705.968 785.365 717.538 793.896 726.068C802.426 734.599 813.996 739.391 826.06 739.391H1055.93C1067.99 739.39 1079.56 734.598 1088.09 726.068C1096.62 717.538 1101.41 705.968 1101.41 693.904C1101.41 681.84 1096.62 670.271 1088.09 661.74C1079.56 653.21 1067.99 648.418 1055.93 648.418H826.06Z" fill="url(#paint0_linear_21_2)"/>
<path d="M217.324 539.1C229.734 555.117 243.581 569.966 258.693 583.463L262.437 586.458C275.582 597.698 289.674 607.781 304.554 616.596C312.405 621.374 320.531 625.687 328.888 629.512L340.307 634.566C343.114 635.689 346.109 636.812 348.917 637.935C350.926 638.52 353.003 638.835 355.094 638.871C357.327 638.879 359.544 638.499 361.646 637.748C397.853 624.159 430.909 603.331 458.796 576.537C471.052 564.964 482.381 552.447 492.677 539.1C529.004 491.967 552.771 436.383 561.749 377.557C564.917 358 566.483 338.218 566.429 318.406V245.028C566.389 241.411 565.309 237.881 563.317 234.86C561.326 231.84 558.507 229.456 555.198 227.994L362.582 144.134C360.217 143.116 357.669 142.59 355.094 142.59C352.52 142.59 349.972 143.116 347.607 144.134L165.661 223.128L154.804 227.994C151.52 229.471 148.731 231.863 146.772 234.884C144.813 237.906 143.767 241.428 143.76 245.028V318.406C143.76 321.775 143.76 324.958 143.947 327.765C145.212 382.037 158.308 435.379 182.32 484.067C192.273 503.448 203.991 521.87 217.324 539.1Z" fill="url(#paint1_linear_21_2)"/>
<path d="M292.198 490.413C297.708 495.911 305.181 499 312.973 499C320.765 499 328.238 495.911 333.748 490.413L491.399 333.069C494.127 330.344 496.291 327.109 497.767 323.55C499.243 319.99 500.001 316.176 500 312.324C499.999 308.471 499.237 304.657 497.759 301.099C496.28 297.54 494.114 294.307 491.384 291.584C488.654 288.861 485.413 286.702 481.847 285.229C478.28 283.756 474.458 282.999 470.599 283C466.739 283.001 462.917 283.761 459.352 285.237C455.787 286.712 452.547 288.874 449.819 291.599L312.973 428.209L259.521 374.861C256.811 372.06 253.568 369.826 249.983 368.289C246.398 366.752 242.542 365.943 238.64 365.909C234.739 365.875 230.869 366.617 227.258 368.092C223.647 369.566 220.366 371.744 217.607 374.498C214.848 377.251 212.666 380.526 211.188 384.13C209.711 387.734 208.967 391.596 209.001 395.49C209.035 399.385 209.846 403.233 211.386 406.811C212.926 410.389 215.164 413.625 217.971 416.331L292.198 490.413Z" fill="#082701"/>
<defs>
<linearGradient id="paint0_linear_21_2" x1="93.5231" y1="316.347" x2="1104.48" y2="1055.36" gradientUnits="userSpaceOnUse">
<stop stop-color="#CACACA"/>
<stop offset="1" stop-color="#6E6E6E"/>
</linearGradient>
<linearGradient id="paint1_linear_21_2" x1="143.76" y1="229.786" x2="566.43" y2="551.675" gradientUnits="userSpaceOnUse">
<stop stop-color="#1D8C07"/>
<stop offset="1" stop-color="#116300"/>
</linearGradient>
</defs>
</svg>
